<svg xmlns="http://www.w3.org/2000/svg" width="256" height="256" viewBox="0 0 100 100"><rect width="100" height="100" rx="20" fill="#ffffff"></rect><path d="M18.22 67.85Q18.22 68.55 17.52 68.55L17.52 68.55L15.12 68.55Q14.42 68.55 14.42 67.85L14.42 67.85L14.42 32.25Q14.42 31.55 15.12 31.55L15.12 31.55L17.52 31.55Q18.22 31.55 18.22 32.25L18.22 32.25L18.22 67.85ZM30.17 67.85Q30.17 68.55 29.47 68.55L29.47 68.55L27.22 68.55Q26.52 68.55 26.52 67.85L26.52 67.85L26.52 32.85Q26.52 31.80 26.70 31.63Q26.88 31.45 27.92 31.45L27.92 31.45L30.22 31.45Q30.88 31.45 31.10 31.58Q31.32 31.70 31.57 32.15L31.57 32.15L50.42 64.50L50.42 32.15Q50.42 31.45 51.13 31.45L51.13 31.45L53.33 31.45Q54.03 31.45 54.03 32.15L54.03 32.15L54.03 67.15Q54.03 68.20 53.85 68.38Q53.67 68.55 52.63 68.55L52.63 68.55L49.58 68.55Q49.17 68.55 49 68.45Q48.83 68.35 48.58 67.95L48.58 67.95L30.17 36.15L30.17 67.85ZM81.83 42L81.83 42Q81.83 38.45 79.98 36.53Q78.13 34.60 74.53 34.60L74.53 34.60L67.03 34.60L67.03 49.55L71.08 49.55Q73.48 49.55 75.40 49.30Q77.33 49.05 78.70 48.25Q80.08 47.45 80.88 45.98Q81.68 44.50 81.83 42ZM67.03 52.70L67.03 67.85Q67.03 68.55 66.33 68.55L66.33 68.55L64.08 68.55Q63.38 68.55 63.38 67.85L63.38 67.85L63.38 32.95Q63.38 31.85 63.60 31.65Q63.83 31.45 64.88 31.45L64.88 31.45L73.78 31.45Q79.28 31.45 82.38 34.10L82.38 34.10Q85.58 36.85 85.58 42L85.58 42Q85.58 44.60 84.65 46.63Q83.73 48.65 82.08 50.03Q80.43 51.40 78.18 52.10Q75.93 52.80 73.38 52.70L73.38 52.70L67.03 52.70Z" fill="#000000"></path></svg>